<svg xmlns="http://www.w3.org/2000/svg" width="48" height="48" viewBox="0 0 48 48"><title>sticker balao</title><defs><filter id="sticker-shadow" x="-20%" y="-20%" width="140%" height="140%"><feDropShadow dx="0" dy="1" stdDeviation="1" flood-color="#000" flood-opacity="0.25"/></filter></defs><rect width="100%" height="100%" fill="#f4f1ea"/><g filter="url(#sticker-shadow)"><path d="M33.9 16.8L32.6 12.7L31.1 10.2L27.4 8.4L24 7.1L19.9 8.1L16.8 9.7L14.6 13.3L14 16.6L14.4 20.5L17.3 23.4L20.6 25.7L24.3 26.3L28.3 25.7L31 23.6L33.5 20.5L33.9 16.8Z" fill="#fff"/><path d="M23.6 27L23.5 30.9L24.4 33.3L23.8 37.7L24.6 40.3M23.5 40.4L22.3 43.1M33.9 16.8L32.6 12.7L31.1 10.2L27.4 8.4L24 7.1L19.9 8.1L16.8 9.7L14.6 13.3L14 16.6L14.4 20.5L17.3 23.4L20.6 25.7L24.3 26.3L28.3 25.7L31 23.6L33.5 20.5L33.9 16.8" fill="none" stroke="#fff" stroke-width="8.5" stroke-linecap="round" stroke-linejoin="round"/><path d="" fill="#fff"/><path d="M23.6 27L23.5 30.9L24.4 33.3L23.8 37.7L24.6 40.3M23.5 40.4L22.3 43.1M33.9 16.8L32.6 12.7L31.1 10.2L27.4 8.4L24 7.1L19.9 8.1L16.8 9.7L14.6 13.3L14 16.6L14.4 20.5L17.3 23.4L20.6 25.7L24.3 26.3L28.3 25.7L31 23.6L33.5 20.5L33.9 16.8" fill="none" stroke="#111" stroke-width="2.5" stroke-linecap="round" stroke-linejoin="round"/><path d="" fill="#111"/></g></svg>
