<svg xmlns="http://www.w3.org/2000/svg" width="180" height="144" viewBox="0 0 180 144"><title>Glyph — walk</title><defs><filter id="sticker-shadow" x="-20%" y="-20%" width="140%" height="140%"><feDropShadow dx="0" dy="1.5" stdDeviation="1.5" flood-color="#000" flood-opacity="0.25"/></filter></defs><rect width="100%" height="100%" fill="#f4f1ea"/><g transform="scale(1.5)"><path d="M10 79.5H110" stroke="#c9c4b8" stroke-width="3" stroke-linecap="round"/></g><g filter="url(#sticker-shadow)"><path d="M100.3 59.5L99.8 55.4L99.2 52.9L95.8 52.2L93.2 50.7L90.9 50.9L88.4 52.2L85.4 53.2L84 56L83.7 59.1L83.7 62.5L85.6 65.7L88 66.8L90.9 67.6L93 68.5L97.4 67L98.6 64.7L100.7 62.1L100.3 59.5Z" fill="#fff"><animate attributeName="d" dur="0.5s" repeatCount="indefinite" calcMode="discrete" values="M100.3 59.5L99.8 55.4L99.2 52.9L95.8 52.2L93.2 50.7L90.9 50.9L88.4 52.2L85.4 53.2L84 56L83.7 59.1L83.7 62.5L85.6 65.7L88 66.8L90.9 67.6L93 68.5L97.4 67L98.6 64.7L100.7 62.1L100.3 59.5Z;M100.3 58.3L99.8 54.2L99.2 51.7L95.8 51L93.2 49.5L90.9 49.7L88.4 51L85.4 52L84 54.8L83.7 57.9L83.7 61.3L85.6 64.5L88 65.6L90.9 66.4L93 67.3L97.4 65.8L98.6 63.5L100.7 60.9L100.3 58.3Z;M100.5 57.4L100.4 55.1L99.4 52.8L97.2 50L93 49.4L91.2 50.1L88.2 49.8L85 52.5L83.2 54.7L83.2 57.7L83.3 60.8L85.5 64.5L87.7 65.6L89.9 67.5L94.5 67.5L96.1 66L99.9 63.4L99.8 61.7L100.5 57.4Z;M100.5 59.8L100.9 56.2L98.2 53.6L96.4 52L93.3 50.4L89.9 50.4L87.5 52.2L85.1 53.7L83 56.8L83.8 58.7L83.9 62.3L85 64.8L87.6 66.4L91.4 68L94.3 68.7L95.9 67.7L99.2 64.4L101.2 62.9L100.5 59.8Z;M100.5 58.6L100.9 55L98.2 52.4L96.4 50.8L93.3 49.2L89.9 49.2L87.5 51L85.1 52.5L83 55.6L83.8 57.5L83.9 61.1L85 63.6L87.6 65.2L91.4 66.8L94.3 67.5L95.9 66.5L99.2 63.2L101.2 61.7L100.5 58.6Z;M101.5 58.3L99.8 54.2L98.4 53L96.7 50.4L93.9 49.2L91.2 49.5L87 49.5L84.6 52.1L83.7 55.6L82.4 58.7L82.9 60.8L84.9 64.6L87.9 65.2L91.4 67.4L94.3 66.6L96.1 65.8L99.5 64L101.5 61.8L101.5 58.3Z"/></path><path d="M89.9 90.3L90.6 85L90.9 81.1L91.3 75.6L91.4 70.8M91.2 73.4L95 73.2L93.3 77.3L92.6 83.1L91.5 86.1L89.6 91.1L89.1 95L87.7 99.8M92 74.3L87.3 72.8L88.1 76.7L90.2 81.7L91.7 86.3L91.5 90.1L93.8 94L94.7 99.9M90.3 89.5L92 94.6L93.4 97.8L94.7 101.4L97.1 105.9L97.9 110.3L100 114.5M89.3 89.4L88.8 93.5L87.3 97.9L84.8 103.1L82.7 105.4L79.8 109.7L75.8 112.4M100.3 59.5L99.8 55.4L99.2 52.9L95.8 52.2L93.2 50.7L90.9 50.9L88.4 52.2L85.4 53.2L84 56L83.7 59.1L83.7 62.5L85.6 65.7L88 66.8L90.9 67.6L93 68.5L97.4 67L98.6 64.7L100.7 62.1L100.3 59.5" fill="none" stroke="#fff" stroke-width="12.8" stroke-linecap="round" stroke-linejoin="round"><animate attributeName="d" dur="0.5s" repeatCount="indefinite" calcMode="discrete" values="M89.9 90.3L90.6 85L90.9 81.1L91.3 75.6L91.4 70.8M91.2 73.4L95 73.2L93.3 77.3L92.6 83.1L91.5 86.1L89.6 91.1L89.1 95L87.7 99.8M92 74.3L87.3 72.8L88.1 76.7L90.2 81.7L91.7 86.3L91.5 90.1L93.8 94L94.7 99.9M90.3 89.5L92 94.6L93.4 97.8L94.7 101.4L97.1 105.9L97.9 110.3L100 114.5M89.3 89.4L88.8 93.5L87.3 97.9L84.8 103.1L82.7 105.4L79.8 109.7L75.8 112.4M100.3 59.5L99.8 55.4L99.2 52.9L95.8 52.2L93.2 50.7L90.9 50.9L88.4 52.2L85.4 53.2L84 56L83.7 59.1L83.7 62.5L85.6 65.7L88 66.8L90.9 67.6L93 68.5L97.4 67L98.6 64.7L100.7 62.1L100.3 59.5;M89.9 89.1L90.6 83.8L90.9 79.9L91.3 74.4L91.4 69.6M91.2 72.2L95 72L94.2 76.3L94.4 82.3L94.2 85.5L93.3 90.6L93.8 94.5L93.3 99.4M92 73.1L87.3 71.6L87.2 75.7L88.4 80.9L88.9 85.7L87.8 89.6L89.1 93.5L89.1 99.5M90.3 88.3L90.9 93.7L91.2 97.2L91.4 101.2L92.5 106L92 110.7L92.7 115.1M89.3 88.2L90.2 92.6L90.2 97.3L89.1 102.9L87.5 105.5L85 110.1L81.5 113.1M100.3 58.3L99.8 54.2L99.2 51.7L95.8 51L93.2 49.5L90.9 49.7L88.4 51L85.4 52L84 54.8L83.7 57.9L83.7 61.3L85.6 64.5L88 65.6L90.9 66.4L93 67.3L97.4 65.8L98.6 63.5L100.7 60.9L100.3 58.3;M89.7 89.3L90.9 84.2L90.1 79.3L90.9 73.3L92.1 69M91.4 72.8L94 72L94.6 77.7L95.6 81.7L95.5 85.7L97.8 90.7L97.8 94.5L99.1 99.2M90.5 71.8L88.1 71.6L87.8 75.6L87.2 81.1L86.8 86L84.5 89.5L83.4 93.8L82.8 98.2M89.8 89.4L88.7 93.6L88.4 98.3L88.9 102.5L86.7 106.9L86 111.1L83.8 114.3M89.1 89.5L91.3 93.6L92.2 97.9L93.4 102L91.2 106.4L91 110.4L90.3 115.2M100.5 57.4L100.4 55.1L99.4 52.8L97.2 50L93 49.4L91.2 50.1L88.2 49.8L85 52.5L83.2 54.7L83.2 57.7L83.3 60.8L85.5 64.5L87.7 65.6L89.9 67.5L94.5 67.5L96.1 66L99.9 63.4L99.8 61.7L100.5 57.4;M90 90.1L90.3 84.3L91.5 80.2L90.9 75.1L91.1 70.8M90.4 73.8L95.8 73.5L95.6 78.1L97.9 81.6L99.5 86.3L101.3 90.4L103.5 95.3L104.8 98.5M91.3 73.7L88.1 72.6L86.7 78L85.2 81.1L83.2 86.1L81.9 90L79.4 93.6L77 98.8M90.1 89.7L87.8 95.1L86.9 97.8L85.4 102.9L82 105.8L79.3 109.7L75.4 112.3M90.9 90.3L92.2 93.3L93.1 98.5L96.2 103L96.6 105.7L98.9 110.4L100.2 114.9M100.5 59.8L100.9 56.2L98.2 53.6L96.4 52L93.3 50.4L89.9 50.4L87.5 52.2L85.1 53.7L83 56.8L83.8 58.7L83.9 62.3L85 64.8L87.6 66.4L91.4 68L94.3 68.7L95.9 67.7L99.2 64.4L101.2 62.9L100.5 59.8;M90 88.9L90.3 83.1L91.5 79L90.9 73.9L91.1 69.6M90.4 72.6L95.8 72.3L94.7 77.1L96 80.8L96.7 85.6L97.6 90.1L99 95.4L99.4 98.8M91.3 72.5L88.1 71.4L87.6 77L87.1 80.3L85.9 85.5L85.6 89.7L84 93.6L82.4 99.2M90.1 88.5L89.2 94.2L89.7 97.3L89.7 102.7L86.8 105.9L84.5 110.1L81.1 113.1M90.9 89.1L91.1 92.4L90.9 98L92.9 102.8L92 105.8L93 110.7L92.9 115.5M100.5 58.6L100.9 55L98.2 52.4L96.4 50.8L93.3 49.2L89.9 49.2L87.5 51L85.1 52.5L83 55.6L83.8 57.5L83.9 61.1L85 63.6L87.6 65.2L91.4 66.8L94.3 67.5L95.9 66.5L99.2 63.2L101.2 61.7L100.5 58.6;M89.5 89.1L90.5 84.5L91.4 79.1L91.2 75L91.5 68.5M91.1 72.9L94.5 72.5L94.6 76.4L94.6 80.7L93.9 85.7L93.3 90L94.2 94.6L94.1 98.6M90.3 71.7L87.1 72.5L87.5 75.7L88.2 81.8L89.2 86.1L88.7 90.3L88.9 93.9L89.1 98.7M89.6 89L90.6 92.8L92.6 97.6L92.5 102.4L91.3 107.2L90.4 111L90.3 114.7M90.2 88.1L89.6 93.2L89.7 97L88.9 102.9L87.7 105.8L86.5 110.9L85.1 114.5M101.5 58.3L99.8 54.2L98.4 53L96.7 50.4L93.9 49.2L91.2 49.5L87 49.5L84.6 52.1L83.7 55.6L82.4 58.7L82.9 60.8L84.9 64.6L87.9 65.2L91.4 67.4L94.3 66.6L96.1 65.8L99.5 64L101.5 61.8L101.5 58.3"/></path><path d="M85.5 59.3a6.6 6.6 0 1 0 13.2 0a6.6 6.6 0 1 0 -13.2 0Z" fill="#fff"><animate attributeName="d" dur="0.5s" repeatCount="indefinite" calcMode="discrete" values="M85.5 59.3a6.6 6.6 0 1 0 13.2 0a6.6 6.6 0 1 0 -13.2 0Z;M85.5 58.1a6.6 6.6 0 1 0 13.3 0a6.6 6.6 0 1 0 -13.3 0Z;M85.5 58.1a6.7 6.7 0 1 0 13.3 0a6.7 6.7 0 1 0 -13.3 0Z;M85.5 59.3a6.7 6.7 0 1 0 13.4 0a6.7 6.7 0 1 0 -13.4 0Z;M85.4 58.1a6.7 6.7 0 1 0 13.4 0a6.7 6.7 0 1 0 -13.4 0Z;M85.4 58.1a6.7 6.7 0 1 0 13.5 0a6.7 6.7 0 1 0 -13.5 0Z"/></path><path d="M89.9 90.3L90.6 85L90.9 81.1L91.3 75.6L91.4 70.8M91.2 73.4L95 73.2L93.3 77.3L92.6 83.1L91.5 86.1L89.6 91.1L89.1 95L87.7 99.8M92 74.3L87.3 72.8L88.1 76.7L90.2 81.7L91.7 86.3L91.5 90.1L93.8 94L94.7 99.9M90.3 89.5L92 94.6L93.4 97.8L94.7 101.4L97.1 105.9L97.9 110.3L100 114.5M89.3 89.4L88.8 93.5L87.3 97.9L84.8 103.1L82.7 105.4L79.8 109.7L75.8 112.4M100.3 59.5L99.8 55.4L99.2 52.9L95.8 52.2L93.2 50.7L90.9 50.9L88.4 52.2L85.4 53.2L84 56L83.7 59.1L83.7 62.5L85.6 65.7L88 66.8L90.9 67.6L93 68.5L97.4 67L98.6 64.7L100.7 62.1L100.3 59.5" fill="none" stroke="#111" stroke-width="3.8" stroke-linecap="round" stroke-linejoin="round"><animate attributeName="d" dur="0.5s" repeatCount="indefinite" calcMode="discrete" values="M89.9 90.3L90.6 85L90.9 81.1L91.3 75.6L91.4 70.8M91.2 73.4L95 73.2L93.3 77.3L92.6 83.1L91.5 86.1L89.6 91.1L89.1 95L87.7 99.8M92 74.3L87.3 72.8L88.1 76.7L90.2 81.7L91.7 86.3L91.5 90.1L93.8 94L94.7 99.9M90.3 89.5L92 94.6L93.4 97.8L94.7 101.4L97.1 105.9L97.9 110.3L100 114.5M89.3 89.4L88.8 93.5L87.3 97.9L84.8 103.1L82.7 105.4L79.8 109.7L75.8 112.4M100.3 59.5L99.8 55.4L99.2 52.9L95.8 52.2L93.2 50.7L90.9 50.9L88.4 52.2L85.4 53.2L84 56L83.7 59.1L83.7 62.5L85.6 65.7L88 66.8L90.9 67.6L93 68.5L97.4 67L98.6 64.7L100.7 62.1L100.3 59.5;M89.9 89.1L90.6 83.8L90.9 79.9L91.3 74.4L91.4 69.6M91.2 72.2L95 72L94.2 76.3L94.4 82.3L94.2 85.5L93.3 90.6L93.8 94.5L93.3 99.4M92 73.1L87.3 71.6L87.2 75.7L88.4 80.9L88.9 85.7L87.8 89.6L89.1 93.5L89.1 99.5M90.3 88.3L90.9 93.7L91.2 97.2L91.4 101.2L92.5 106L92 110.7L92.7 115.1M89.3 88.2L90.2 92.6L90.2 97.3L89.1 102.9L87.5 105.5L85 110.1L81.5 113.1M100.3 58.3L99.8 54.2L99.2 51.7L95.8 51L93.2 49.5L90.9 49.7L88.4 51L85.4 52L84 54.8L83.7 57.9L83.7 61.3L85.6 64.5L88 65.6L90.9 66.4L93 67.3L97.4 65.8L98.6 63.5L100.7 60.9L100.3 58.3;M89.7 89.3L90.9 84.2L90.1 79.3L90.9 73.3L92.1 69M91.4 72.8L94 72L94.6 77.7L95.6 81.7L95.5 85.7L97.8 90.7L97.8 94.5L99.1 99.2M90.5 71.8L88.1 71.6L87.8 75.6L87.2 81.1L86.8 86L84.5 89.5L83.4 93.8L82.8 98.2M89.8 89.4L88.7 93.6L88.4 98.3L88.9 102.5L86.7 106.9L86 111.1L83.8 114.3M89.1 89.5L91.3 93.6L92.2 97.9L93.4 102L91.2 106.4L91 110.4L90.3 115.2M100.5 57.4L100.4 55.1L99.4 52.8L97.2 50L93 49.4L91.2 50.1L88.2 49.8L85 52.5L83.2 54.7L83.2 57.7L83.3 60.8L85.5 64.5L87.7 65.6L89.9 67.5L94.5 67.5L96.1 66L99.9 63.4L99.8 61.7L100.5 57.4;M90 90.1L90.3 84.3L91.5 80.2L90.9 75.1L91.1 70.8M90.4 73.8L95.8 73.5L95.6 78.1L97.9 81.6L99.5 86.3L101.3 90.4L103.5 95.3L104.8 98.5M91.3 73.7L88.1 72.6L86.7 78L85.2 81.1L83.2 86.1L81.9 90L79.4 93.6L77 98.8M90.1 89.7L87.8 95.1L86.9 97.8L85.4 102.9L82 105.8L79.3 109.7L75.4 112.3M90.9 90.3L92.2 93.3L93.1 98.5L96.2 103L96.6 105.7L98.9 110.4L100.2 114.9M100.5 59.8L100.9 56.2L98.2 53.6L96.4 52L93.3 50.4L89.9 50.4L87.5 52.2L85.1 53.7L83 56.8L83.8 58.7L83.9 62.3L85 64.8L87.6 66.4L91.4 68L94.3 68.7L95.9 67.7L99.2 64.4L101.2 62.9L100.5 59.8;M90 88.9L90.3 83.1L91.5 79L90.9 73.9L91.1 69.6M90.4 72.6L95.8 72.3L94.7 77.1L96 80.8L96.7 85.6L97.6 90.1L99 95.4L99.4 98.8M91.3 72.5L88.1 71.4L87.6 77L87.1 80.3L85.9 85.5L85.6 89.7L84 93.6L82.4 99.2M90.1 88.5L89.2 94.2L89.7 97.3L89.7 102.7L86.8 105.9L84.5 110.1L81.1 113.1M90.9 89.1L91.1 92.4L90.9 98L92.9 102.8L92 105.8L93 110.7L92.9 115.5M100.5 58.6L100.9 55L98.2 52.4L96.4 50.8L93.3 49.2L89.9 49.2L87.5 51L85.1 52.5L83 55.6L83.8 57.5L83.9 61.1L85 63.6L87.6 65.2L91.4 66.8L94.3 67.5L95.9 66.5L99.2 63.2L101.2 61.7L100.5 58.6;M89.5 89.1L90.5 84.5L91.4 79.1L91.2 75L91.5 68.5M91.1 72.9L94.5 72.5L94.6 76.4L94.6 80.7L93.9 85.7L93.3 90L94.2 94.6L94.1 98.6M90.3 71.7L87.1 72.5L87.5 75.7L88.2 81.8L89.2 86.1L88.7 90.3L88.9 93.9L89.1 98.7M89.6 89L90.6 92.8L92.6 97.6L92.5 102.4L91.3 107.2L90.4 111L90.3 114.7M90.2 88.1L89.6 93.2L89.7 97L88.9 102.9L87.7 105.8L86.5 110.9L85.1 114.5M101.5 58.3L99.8 54.2L98.4 53L96.7 50.4L93.9 49.2L91.2 49.5L87 49.5L84.6 52.1L83.7 55.6L82.4 58.7L82.9 60.8L84.9 64.6L87.9 65.2L91.4 67.4L94.3 66.6L96.1 65.8L99.5 64L101.5 61.8L101.5 58.3"/></path><path d="M88.2 59.3a3.9 3.9 0 1 0 7.8 0a3.9 3.9 0 1 0 -7.8 0Z" fill="#111"><animate attributeName="d" dur="0.5s" repeatCount="indefinite" calcMode="discrete" values="M88.2 59.3a3.9 3.9 0 1 0 7.8 0a3.9 3.9 0 1 0 -7.8 0Z;M88.2 58.1a3.9 3.9 0 1 0 7.9 0a3.9 3.9 0 1 0 -7.9 0Z;M88.2 58.1a4 4 0 1 0 7.9 0a4 4 0 1 0 -7.9 0Z;M88.2 59.3a4 4 0 1 0 8 0a4 4 0 1 0 -8 0Z;M88.1 58.1a4 4 0 1 0 8 0a4 4 0 1 0 -8 0Z;M88.1 58.1a4 4 0 1 0 8.1 0a4 4 0 1 0 -8.1 0Z"/></path></g></svg>
