<svg xmlns="http://www.w3.org/2000/svg" width="448" height="240" viewBox="0 0 448 240"><title>Glyph — stickers</title><defs><filter id="sticker-shadow" x="-20%" y="-20%" width="140%" height="140%"><feDropShadow dx="0" dy="1" stdDeviation="1" flood-color="#000" flood-opacity="0.25"/></filter></defs><rect width="100%" height="100%" fill="#f4f1ea"/><g filter="url(#sticker-shadow)"><path d="M38.5 24.5L37.5 22.3L36.5 19.8L34.1 18.6L31.7 17.7L29.2 18.5L27.4 19.4L25.6 21.7L26 23.8L26.5 26.4L27.9 28.3L30.1 29.8L32 30.3L34.9 29.9L36.3 28.8L38.1 27.2L38.5 24.5Z" fill="#fff"/><path d="M31.6 30.8L31.5 35L32.4 37.8L31.8 42.6L32.6 45.5M25.9 30.2L30.5 30.1L34 30.8L37.7 30.5M38.5 24.5L37.5 22.3L36.5 19.8L34.1 18.6L31.7 17.7L29.2 18.5L27.4 19.4L25.6 21.7L26 23.8L26.5 26.4L27.9 28.3L30.1 29.8L32 30.3L34.9 29.9L36.3 28.8L38.1 27.2L38.5 24.5" fill="none" stroke="#fff" stroke-width="8.5" stroke-linecap="round" stroke-linejoin="round"/><path d="" fill="#fff"/><path d="M31.6 30.8L31.5 35L32.4 37.8L31.8 42.6L32.6 45.5M25.9 30.2L30.5 30.1L34 30.8L37.7 30.5M38.5 24.5L37.5 22.3L36.5 19.8L34.1 18.6L31.7 17.7L29.2 18.5L27.4 19.4L25.6 21.7L26 23.8L26.5 26.4L27.9 28.3L30.1 29.8L32 30.3L34.9 29.9L36.3 28.8L38.1 27.2L38.5 24.5" fill="none" stroke="#111" stroke-width="2.5" stroke-linecap="round" stroke-linejoin="round"/><path d="" fill="#111"/></g><text x="32" y="74" text-anchor="middle" font-family="system-ui, sans-serif" font-size="10" fill="#5c574e">alfinete</text><g filter="url(#sticker-shadow)"><path d="M81.6 42L85.5 42.4L90.4 41.3L93.8 42.2L98.6 41.3L101.5 42L106.6 42.3L109.9 41.7L110 37.8L110.5 33.8L110 30.1L109.6 26.1L110.1 21.9L105.6 22.4L101.6 22.5L97.9 22.1L93.5 21.8L90.4 21.7L86.1 22.4L82.1 22.1L81.6 42Z" fill="#fff"/><path d="M81.6 42L85.5 42.4L90.4 41.3L93.8 42.2L98.6 41.3L101.5 42L106.6 42.3L109.9 41.7L110 37.8L110.5 33.8L110 30.1L109.6 26.1L110.1 21.9L105.6 22.4L101.6 22.5L97.9 22.1L93.5 21.8L90.4 21.7L86.1 22.4L82.1 22.1L81.6 42M89.2 32.2L91.1 34.9L93.9 36.8L95.8 34.8L98.2 32L100.4 30.1L102.8 27.4" fill="none" stroke="#fff" stroke-width="8.5" stroke-linecap="round" stroke-linejoin="round"/><path d="" fill="#fff"/><path d="M81.6 42L85.5 42.4L90.4 41.3L93.8 42.2L98.6 41.3L101.5 42L106.6 42.3L109.9 41.7L110 37.8L110.5 33.8L110 30.1L109.6 26.1L110.1 21.9L105.6 22.4L101.6 22.5L97.9 22.1L93.5 21.8L90.4 21.7L86.1 22.4L82.1 22.1L81.6 42M89.2 32.2L91.1 34.9L93.9 36.8L95.8 34.8L98.2 32L100.4 30.1L102.8 27.4" fill="none" stroke="#111" stroke-width="2.5" stroke-linecap="round" stroke-linejoin="round"/><path d="" fill="#111"/></g><text x="96" y="74" text-anchor="middle" font-family="system-ui, sans-serif" font-size="10" fill="#5c574e">cartao</text><g filter="url(#sticker-shadow)"><path d="M148.4 44.8L152 45.2L156.7 44.1L159.8 45L164.3 44.1L167 44.8L171.8 45.1L171.1 41.2L171.2 37.8L171.7 34.3L171.2 31.3L170.8 27.8L168.5 25.1L165.2 23.1L162.4 20.7L159.9 17.9L156.7 20.1L154.8 22.4L151.7 25.5L148.9 27.7L148.4 44.8ZM156 44.8L158.3 45L161.4 44.5L163.8 44.7L163.9 40.5L163.9 37.2L164 33L160.8 33.2L158.9 32.9L156.1 33.1L156 44.8Z" fill="#fff"/><path d="M148.4 44.8L152 45.2L156.7 44.1L159.8 45L164.3 44.1L167 44.8L171.8 45.1L171.1 41.2L171.2 37.8L171.7 34.3L171.2 31.3L170.8 27.8L168.5 25.1L165.2 23.1L162.4 20.7L159.9 17.9L156.7 20.1L154.8 22.4L151.7 25.5L148.9 27.7L148.4 44.8M156 44.8L158.3 45L161.4 44.5L163.8 44.7L163.9 40.5L163.9 37.2L164 33L160.8 33.2L158.9 32.9L156.1 33.1L156 44.8" fill="none" stroke="#fff" stroke-width="8.5" stroke-linecap="round" stroke-linejoin="round"/><path d="M159.2 39a3.1 3.1 0 1 0 6.1 0a3.1 3.1 0 1 0 -6.1 0Z" fill="#fff"/><path d="M148.4 44.8L152 45.2L156.7 44.1L159.8 45L164.3 44.1L167 44.8L171.8 45.1L171.1 41.2L171.2 37.8L171.7 34.3L171.2 31.3L170.8 27.8L168.5 25.1L165.2 23.1L162.4 20.7L159.9 17.9L156.7 20.1L154.8 22.4L151.7 25.5L148.9 27.7L148.4 44.8M156 44.8L158.3 45L161.4 44.5L163.8 44.7L163.9 40.5L163.9 37.2L164 33L160.8 33.2L158.9 32.9L156.1 33.1L156 44.8" fill="none" stroke="#111" stroke-width="2.5" stroke-linecap="round" stroke-linejoin="round"/><path d="M161 39a1.3 1.3 0 1 0 2.5 0a1.3 1.3 0 1 0 -2.5 0Z" fill="#111"/></g><text x="160" y="74" text-anchor="middle" font-family="system-ui, sans-serif" font-size="10" fill="#5c574e">casa</text><g filter="url(#sticker-shadow)"><path d="M237.3 24.2L236.5 22.3L235.4 20L233.5 19.2L231.5 18.3L229 18.9L228 19.8L226.9 21.8L226.4 23.8L227.1 26.1L227.8 27.9L230 29.2L231.6 29.9L234.1 29.9L235.3 28L236.5 26.4L237.3 24.2Z" fill="#fff"/><path d="M212.4 43.4L215.1 41L218.8 37.1L221 35.2L224.6 31.5L226.3 29.4M230 18.9L230.4 22.4L231.1 24.9L233.3 26.3L237.2 25.9M237.3 24.2L236.5 22.3L235.4 20L233.5 19.2L231.5 18.3L229 18.9L228 19.8L226.9 21.8L226.4 23.8L227.1 26.1L227.8 27.9L230 29.2L231.6 29.9L234.1 29.9L235.3 28L236.5 26.4L237.3 24.2" fill="none" stroke="#fff" stroke-width="8.5" stroke-linecap="round" stroke-linejoin="round"/><path d="" fill="#fff"/><path d="M212.4 43.4L215.1 41L218.8 37.1L221 35.2L224.6 31.5L226.3 29.4M230 18.9L230.4 22.4L231.1 24.9L233.3 26.3L237.2 25.9M237.3 24.2L236.5 22.3L235.4 20L233.5 19.2L231.5 18.3L229 18.9L228 19.8L226.9 21.8L226.4 23.8L227.1 26.1L227.8 27.9L230 29.2L231.6 29.9L234.1 29.9L235.3 28L236.5 26.4L237.3 24.2" fill="none" stroke="#111" stroke-width="2.5" stroke-linecap="round" stroke-linejoin="round"/><path d="" fill="#111"/></g><text x="224" y="74" text-anchor="middle" font-family="system-ui, sans-serif" font-size="10" fill="#5c574e">chave</text><g filter="url(#sticker-shadow)"><path d="M277.8 44.8L281.6 45.2L286.5 44.1L289.8 45L294.5 44.1L297.3 44.8L298.4 41.5L297.7 37.3L297.8 33.7L298.3 30L297.8 26.7L297.4 23L297.9 19.1L293.5 19.6L289.5 19.7L285.9 19.3L281.6 19L278.6 18.9L277.8 44.8Z" fill="#fff"/><path d="M277.8 44.8L281.6 45.2L286.5 44.1L289.8 45L294.5 44.1L297.3 44.8L298.4 41.5L297.7 37.3L297.8 33.7L298.3 30L297.8 26.7L297.4 23L297.9 19.1L293.5 19.6L289.5 19.7L285.9 19.3L281.6 19L278.6 18.9L277.8 44.8M282.5 44.4L282 40.4L282.6 37.6L282.1 34.2L282.4 30.1L282 26.7L282.1 22.7L282.1 19.4M286.2 26.4L290.1 25.9L293.2 26.1M286.9 32.4L290.6 32.2L293.7 32M286.6 37.9L289.2 37.1L292.2 37.3" fill="none" stroke="#fff" stroke-width="8.5" stroke-linecap="round" stroke-linejoin="round"/><path d="" fill="#fff"/><path d="M277.8 44.8L281.6 45.2L286.5 44.1L289.8 45L294.5 44.1L297.3 44.8L298.4 41.5L297.7 37.3L297.8 33.7L298.3 30L297.8 26.7L297.4 23L297.9 19.1L293.5 19.6L289.5 19.7L285.9 19.3L281.6 19L278.6 18.9L277.8 44.8M282.5 44.4L282 40.4L282.6 37.6L282.1 34.2L282.4 30.1L282 26.7L282.1 22.7L282.1 19.4M286.2 26.4L290.1 25.9L293.2 26.1M286.9 32.4L290.6 32.2L293.7 32M286.6 37.9L289.2 37.1L292.2 37.3" fill="none" stroke="#111" stroke-width="2.5" stroke-linecap="round" stroke-linejoin="round"/><path d="" fill="#111"/></g><text x="288" y="74" text-anchor="middle" font-family="system-ui, sans-serif" font-size="10" fill="#5c574e">diario</text><g filter="url(#sticker-shadow)"><path d="M339 40.6L342.5 41L347 39.9L350 40.8L354.4 39.9L356.9 40.6L361.6 40.9L364.5 40.3L364.6 37L365.1 33.5L364.6 30.4L364.2 27L364.7 23.3L360.6 23.8L357 23.9L353.7 23.5L349.7 23.2L347 23.1L343.1 23.8L339.5 23.5L339 40.6Z" fill="#fff"/><path d="M339 40.6L342.5 41L347 39.9L350 40.8L354.4 39.9L356.9 40.6L361.6 40.9L364.5 40.3L364.6 37L365.1 33.5L364.6 30.4L364.2 27L364.7 23.3L360.6 23.8L357 23.9L353.7 23.5L349.7 23.2L347 23.1L343.1 23.8L339.5 23.5L339 40.6M339.6 23.8L342.2 26.5L345.7 28.4L348.5 31.1L351.7 33.1L354.8 31L358.1 28.1L360.9 25.8L364.9 23.1M339.3 40.2L341.1 38.4L343 35.9L345.7 32.8L347.6 30.5M364.4 40.4L362 37.8L360.5 35.9L358.1 33L356.7 30.3" fill="none" stroke="#fff" stroke-width="8.5" stroke-linecap="round" stroke-linejoin="round"/><path d="" fill="#fff"/><path d="M339 40.6L342.5 41L347 39.9L350 40.8L354.4 39.9L356.9 40.6L361.6 40.9L364.5 40.3L364.6 37L365.1 33.5L364.6 30.4L364.2 27L364.7 23.3L360.6 23.8L357 23.9L353.7 23.5L349.7 23.2L347 23.1L343.1 23.8L339.5 23.5L339 40.6M339.6 23.8L342.2 26.5L345.7 28.4L348.5 31.1L351.7 33.1L354.8 31L358.1 28.1L360.9 25.8L364.9 23.1M339.3 40.2L341.1 38.4L343 35.9L345.7 32.8L347.6 30.5M364.4 40.4L362 37.8L360.5 35.9L358.1 33L356.7 30.3" fill="none" stroke="#111" stroke-width="2.5" stroke-linecap="round" stroke-linejoin="round"/><path d="" fill="#111"/></g><text x="352" y="74" text-anchor="middle" font-family="system-ui, sans-serif" font-size="10" fill="#5c574e">envelope</text><g filter="url(#sticker-shadow)"><path d="M415.6 18.2L419.2 20L423.9 20.3L427 22.6L427.4 25.2L426 29.4L426.7 33.2L425.7 36.1L423.4 38.6L421.4 40.9L418.4 43.6L415.6 46L413.6 43.3L410.7 41.3L408.2 38.9L406.1 36.1L405.3 32.3L405.9 28.7L405.3 25.9L404.9 22.1L415.6 18.2Z" fill="#fff"/><path d="M415.6 18.2L419.2 20L423.9 20.3L427 22.6L427.4 25.2L426 29.4L426.7 33.2L425.7 36.1L423.4 38.6L421.4 40.9L418.4 43.6L415.6 46L413.6 43.3L410.7 41.3L408.2 38.9L406.1 36.1L405.3 32.3L405.9 28.7L405.3 25.9L404.9 22.1L415.6 18.2M411.3 32.2L412.5 34.5L414.6 36.1L416.6 33.3L419 29.8L421.3 27.1" fill="none" stroke="#fff" stroke-width="8.5" stroke-linecap="round" stroke-linejoin="round"/><path d="" fill="#fff"/><path d="M415.6 18.2L419.2 20L423.9 20.3L427 22.6L427.4 25.2L426 29.4L426.7 33.2L425.7 36.1L423.4 38.6L421.4 40.9L418.4 43.6L415.6 46L413.6 43.3L410.7 41.3L408.2 38.9L406.1 36.1L405.3 32.3L405.9 28.7L405.3 25.9L404.9 22.1L415.6 18.2M411.3 32.2L412.5 34.5L414.6 36.1L416.6 33.3L419 29.8L421.3 27.1" fill="none" stroke="#111" stroke-width="2.5" stroke-linecap="round" stroke-linejoin="round"/><path d="" fill="#111"/></g><text x="416" y="74" text-anchor="middle" font-family="system-ui, sans-serif" font-size="10" fill="#5c574e">escudo</text><g filter="url(#sticker-shadow)"><path d="M21.8 99.6L25.5 100L30.3 98.9L33.6 99.8L38.2 98.9L39.9 102.4L43.8 105.5L43.1 108.8L43.2 112.8L43.7 116.6L43.2 120.8L42.8 124.6L39.8 124.3L35.8 124.8L32.3 124.9L29.1 124.5L25.2 124.2L22.6 124.1L21.8 99.6Z" fill="#fff"/><path d="M21.8 99.6L25.5 100L30.3 98.9L33.6 99.8L38.2 98.9L39.9 102.4L43.8 105.5L43.1 108.8L43.2 112.8L43.7 116.6L43.2 120.8L42.8 124.6L39.8 124.3L35.8 124.8L32.3 124.9L29.1 124.5L25.2 124.2L22.6 124.1L21.8 99.6M37.7 99.2L37.2 101.6L37.8 105.2L40.1 105.4L43.2 104.9M26.3 107.8L30.4 108.3L33.6 107.6L37.2 107.8M26.1 113.6L30.5 113.1L34.2 113.8L38.1 113.6M26.2 118.6L29.9 119.3L33.2 118.5" fill="none" stroke="#fff" stroke-width="8.5" stroke-linecap="round" stroke-linejoin="round"/><path d="" fill="#fff"/><path d="M21.8 99.6L25.5 100L30.3 98.9L33.6 99.8L38.2 98.9L39.9 102.4L43.8 105.5L43.1 108.8L43.2 112.8L43.7 116.6L43.2 120.8L42.8 124.6L39.8 124.3L35.8 124.8L32.3 124.9L29.1 124.5L25.2 124.2L22.6 124.1L21.8 99.6M37.7 99.2L37.2 101.6L37.8 105.2L40.1 105.4L43.2 104.9M26.3 107.8L30.4 108.3L33.6 107.6L37.2 107.8M26.1 113.6L30.5 113.1L34.2 113.8L38.1 113.6M26.2 118.6L29.9 119.3L33.2 118.5" fill="none" stroke="#111" stroke-width="2.5" stroke-linecap="round" stroke-linejoin="round"/><path d="" fill="#111"/></g><text x="32" y="154" text-anchor="middle" font-family="system-ui, sans-serif" font-size="10" fill="#5c574e">folha</text><g filter="url(#sticker-shadow)"><path d="M91.4 116.4L94.1 116.8L97.8 115.7L100 116.6L100.8 119.2L99.7 123.4L98 123.7L94.5 123.1L91.8 123.1L91.4 116.4ZM104.5 106.5L104.3 103.7L102.4 100.4L99.2 98.7L96 98.4L92.4 99L90.1 101.2L87.1 104L87.2 107.2L87.2 110.8L90.1 113.4L92.5 115.2L96.1 115.7L99 116L102.8 113.2L104.2 110.5L104.5 106.5Z" fill="#fff"/><path d="M91.4 116.4L94.1 116.8L97.8 115.7L100 116.6L100.8 119.2L99.7 123.4L98 123.7L94.5 123.1L91.8 123.1L91.4 116.4M91.3 120.3L95.2 119.2L97.7 119.6L100.7 119.8M80.3 106.1L83.1 106.4M108.2 106.4L111.4 105.9M96.4 94.9L96.3 93.5M85.8 97.5L86.7 99M106.5 97.6L105.3 99.6M104.5 106.5L104.3 103.7L102.4 100.4L99.2 98.7L96 98.4L92.4 99L90.1 101.2L87.1 104L87.2 107.2L87.2 110.8L90.1 113.4L92.5 115.2L96.1 115.7L99 116L102.8 113.2L104.2 110.5L104.5 106.5" fill="none" stroke="#fff" stroke-width="8.5" stroke-linecap="round" stroke-linejoin="round"/><path d="" fill="#fff"/><path d="M91.4 116.4L94.1 116.8L97.8 115.7L100 116.6L100.8 119.2L99.7 123.4L98 123.7L94.5 123.1L91.8 123.1L91.4 116.4M91.3 120.3L95.2 119.2L97.7 119.6L100.7 119.8M80.3 106.1L83.1 106.4M108.2 106.4L111.4 105.9M96.4 94.9L96.3 93.5M85.8 97.5L86.7 99M106.5 97.6L105.3 99.6M104.5 106.5L104.3 103.7L102.4 100.4L99.2 98.7L96 98.4L92.4 99L90.1 101.2L87.1 104L87.2 107.2L87.2 110.8L90.1 113.4L92.5 115.2L96.1 115.7L99 116L102.8 113.2L104.2 110.5L104.5 106.5" fill="none" stroke="#111" stroke-width="2.5" stroke-linecap="round" stroke-linejoin="round"/><path d="" fill="#111"/></g><text x="96" y="154" text-anchor="middle" font-family="system-ui, sans-serif" font-size="10" fill="#5c574e">lampada</text><g filter="url(#sticker-shadow)"><path d="M148.4 124.8L152 125.2L156.7 124.1L159.8 125L164.3 124.1L167 124.8L171.8 125.1L171.1 120.9L171.2 117.3L171.7 113.6L171.2 110.3L170.8 106.6L171.3 102.7L170.8 99.6L167 99.7L163.6 99.3L159.5 99L156.6 98.9L152.6 99.6L148.9 99.3L148.4 124.8Z" fill="#fff"/><path d="M148.4 124.8L152 125.2L156.7 124.1L159.8 125L164.3 124.1L167 124.8L171.8 125.1L171.1 120.9L171.2 117.3L171.7 113.6L171.2 110.3L170.8 106.6L171.3 102.7L170.8 99.6L167 99.7L163.6 99.3L159.5 99L156.6 98.9L152.6 99.6L148.9 99.3L148.4 124.8M153.2 124.8L152.7 121.4L153 117.3L152.6 113.9L152.7 109.9L152.7 106.6L152.8 102.6L152.4 99.2M156.8 106.1L160.4 106.2L163.3 106.9L166.4 106.8M157.4 111.1L160 111.1L163.5 110.6L166.5 110.5M157.5 120.9L160.2 120.8L164 120.5L167.7 120.8L171.2 120.7" fill="none" stroke="#fff" stroke-width="8.5" stroke-linecap="round" stroke-linejoin="round"/><path d="" fill="#fff"/><path d="M148.4 124.8L152 125.2L156.7 124.1L159.8 125L164.3 124.1L167 124.8L171.8 125.1L171.1 120.9L171.2 117.3L171.7 113.6L171.2 110.3L170.8 106.6L171.3 102.7L170.8 99.6L167 99.7L163.6 99.3L159.5 99L156.6 98.9L152.6 99.6L148.9 99.3L148.4 124.8M153.2 124.8L152.7 121.4L153 117.3L152.6 113.9L152.7 109.9L152.7 106.6L152.8 102.6L152.4 99.2M156.8 106.1L160.4 106.2L163.3 106.9L166.4 106.8M157.4 111.1L160 111.1L163.5 110.6L166.5 110.5M157.5 120.9L160.2 120.8L164 120.5L167.7 120.8L171.2 120.7" fill="none" stroke="#111" stroke-width="2.5" stroke-linecap="round" stroke-linejoin="round"/><path d="" fill="#111"/></g><text x="160" y="154" text-anchor="middle" font-family="system-ui, sans-serif" font-size="10" fill="#5c574e">livro</text><g filter="url(#sticker-shadow)"><path d="M229.1 108.8L229.3 105.5L227.3 103.4L224.5 101.3L220.7 101.4L218.6 101L215.6 103.1L213.9 106.1L212.4 109.8L213.6 112.7L215.2 115.5L217.7 117.3L221 117.8L224.5 116.7L226.7 114.6L229.1 112.6L229.1 108.8Z" fill="#fff"/><path d="M227.1 115.7L229.2 118.3L232.5 119.6L234.2 122.8L237.2 124.1M229.1 108.8L229.3 105.5L227.3 103.4L224.5 101.3L220.7 101.4L218.6 101L215.6 103.1L213.9 106.1L212.4 109.8L213.6 112.7L215.2 115.5L217.7 117.3L221 117.8L224.5 116.7L226.7 114.6L229.1 112.6L229.1 108.8" fill="none" stroke="#fff" stroke-width="8.5" stroke-linecap="round" stroke-linejoin="round"/><path d="" fill="#fff"/><path d="M227.1 115.7L229.2 118.3L232.5 119.6L234.2 122.8L237.2 124.1M229.1 108.8L229.3 105.5L227.3 103.4L224.5 101.3L220.7 101.4L218.6 101L215.6 103.1L213.9 106.1L212.4 109.8L213.6 112.7L215.2 115.5L217.7 117.3L221 117.8L224.5 116.7L226.7 114.6L229.1 112.6L229.1 108.8" fill="none" stroke="#111" stroke-width="2.5" stroke-linecap="round" stroke-linejoin="round"/><path d="" fill="#111"/></g><text x="224" y="154" text-anchor="middle" font-family="system-ui, sans-serif" font-size="10" fill="#5c574e">lupa</text><g filter="url(#sticker-shadow)"><path d="M277.8 124.8L281.6 125.2L286.5 124.1L289.8 125L294.5 124.1L297.3 124.8L298.4 121.4L297.7 117.2L297.8 113.6L298.3 109.9L297.8 106.5L295.3 103.6L293.7 100.5L289.5 101L285.7 101.1L282.3 100.7L279.8 103.2L278.6 105.9L277.8 124.8ZM282.5 120.2L285.7 119.8L290 120.6L293.3 120.8L293.6 117.5L293.2 114.9L289.6 114.5L285.8 114.8L282.2 114.4L282.5 120.2Z" fill="#fff"/><path d="M277.8 124.8L281.6 125.2L286.5 124.1L289.8 125L294.5 124.1L297.3 124.8L298.4 121.4L297.7 117.2L297.8 113.6L298.3 109.9L297.8 106.5L295.3 103.6L293.7 100.5L289.5 101L285.7 101.1L282.3 100.7L279.8 103.2L278.6 105.9L277.8 124.8M282.5 120.2L285.7 119.8L290 120.6L293.3 120.8L293.6 117.5L293.2 114.9L289.6 114.5L285.8 114.8L282.2 114.4L282.5 120.2M278.2 110.1L281.7 110.3L285.9 110.4L289.5 111.1L293.3 111L297.8 110.4M283.3 101.3L283.6 97.3L286.1 97.2L289.5 97.7L292 97.3L292.7 100.5" fill="none" stroke="#fff" stroke-width="8.5" stroke-linecap="round" stroke-linejoin="round"/><path d="" fill="#fff"/><path d="M277.8 124.8L281.6 125.2L286.5 124.1L289.8 125L294.5 124.1L297.3 124.8L298.4 121.4L297.7 117.2L297.8 113.6L298.3 109.9L297.8 106.5L295.3 103.6L293.7 100.5L289.5 101L285.7 101.1L282.3 100.7L279.8 103.2L278.6 105.9L277.8 124.8M282.5 120.2L285.7 119.8L290 120.6L293.3 120.8L293.6 117.5L293.2 114.9L289.6 114.5L285.8 114.8L282.2 114.4L282.5 120.2M278.2 110.1L281.7 110.3L285.9 110.4L289.5 111.1L293.3 111L297.8 110.4M283.3 101.3L283.6 97.3L286.1 97.2L289.5 97.7L292 97.3L292.7 100.5" fill="none" stroke="#111" stroke-width="2.5" stroke-linecap="round" stroke-linejoin="round"/><path d="" fill="#111"/></g><text x="288" y="154" text-anchor="middle" font-family="system-ui, sans-serif" font-size="10" fill="#5c574e">mochila</text><g filter="url(#sticker-shadow)"><path d="M339 122L342.5 122.4L347 121.3L350 122.2L354.4 121.3L356.9 122L361.6 122.3L364.5 121.7L364.6 118.4L365.1 114.9L364.6 111.8L364.2 108.4L364.7 104.7L361.1 105.2L357.9 105.3L355 104.9L351.5 104.6L351 102.4L349.3 101L346 100.7L342.2 101.4L340 100.3L339 122Z" fill="#fff"/><path d="M339 122L342.5 122.4L347 121.3L350 122.2L354.4 121.3L356.9 122L361.6 122.3L364.5 121.7L364.6 118.4L365.1 114.9L364.6 111.8L364.2 108.4L364.7 104.7L361.1 105.2L357.9 105.3L355 104.9L351.5 104.6L351 102.4L349.3 101L346 100.7L342.2 101.4L340 100.3L339 122M339.4 109.1L342.6 109.3L346.3 108.9L349.9 109.2L353.6 108.8L356.8 109L361.3 108.7L364.9 108.9" fill="none" stroke="#fff" stroke-width="8.5" stroke-linecap="round" stroke-linejoin="round"/><path d="" fill="#fff"/><path d="M339 122L342.5 122.4L347 121.3L350 122.2L354.4 121.3L356.9 122L361.6 122.3L364.5 121.7L364.6 118.4L365.1 114.9L364.6 111.8L364.2 108.4L364.7 104.7L361.1 105.2L357.9 105.3L355 104.9L351.5 104.6L351 102.4L349.3 101L346 100.7L342.2 101.4L340 100.3L339 122M339.4 109.1L342.6 109.3L346.3 108.9L349.9 109.2L353.6 108.8L356.8 109L361.3 108.7L364.9 108.9" fill="none" stroke="#111" stroke-width="2.5" stroke-linecap="round" stroke-linejoin="round"/><path d="" fill="#111"/></g><text x="352" y="154" text-anchor="middle" font-family="system-ui, sans-serif" font-size="10" fill="#5c574e">pasta</text><g filter="url(#sticker-shadow)"><path d="M428.2 111.4L428.3 109.8L427.3 107.6L426.3 105.1L424.6 103.2L422.6 101.4L420.5 100.4L418.2 99.4L415.4 99.2L413.8 99.4L411.5 100L409.5 101.2L407.6 102.7L405.8 104.8L404.8 106.9L403.7 109.6L403.6 112.5L403.6 114.2L404 116.8L405.8 118.4L406.7 120.7L409 122.1L410.8 124.1L413 124.5L416 124.4L418.3 124L421.2 123.1L423 122L424.8 120.9L426.3 119.5L427.4 117.1L428.2 111.4Z" fill="#fff"/><path d="M411.4 117.8L411.3 114.4L412.2 109.7L411.6 106.8M420.1 117.5L419.7 113.5L420.6 109.6L420.3 106.6M428.2 111.4L428.3 109.8L427.3 107.6L426.3 105.1L424.6 103.2L422.6 101.4L420.5 100.4L418.2 99.4L415.4 99.2L413.8 99.4L411.5 100L409.5 101.2L407.6 102.7L405.8 104.8L404.8 106.9L403.7 109.6L403.6 112.5L403.6 114.2L404 116.8L405.8 118.4L406.7 120.7L409 122.1L410.8 124.1L413 124.5L416 124.4L418.3 124L421.2 123.1L423 122L424.8 120.9L426.3 119.5L427.4 117.1L428.2 111.4" fill="none" stroke="#fff" stroke-width="8.5" stroke-linecap="round" stroke-linejoin="round"/><path d="" fill="#fff"/><path d="M411.4 117.8L411.3 114.4L412.2 109.7L411.6 106.8M420.1 117.5L419.7 113.5L420.6 109.6L420.3 106.6M428.2 111.4L428.3 109.8L427.3 107.6L426.3 105.1L424.6 103.2L422.6 101.4L420.5 100.4L418.2 99.4L415.4 99.2L413.8 99.4L411.5 100L409.5 101.2L407.6 102.7L405.8 104.8L404.8 106.9L403.7 109.6L403.6 112.5L403.6 114.2L404 116.8L405.8 118.4L406.7 120.7L409 122.1L410.8 124.1L413 124.5L416 124.4L418.3 124L421.2 123.1L423 122L424.8 120.9L426.3 119.5L427.4 117.1L428.2 111.4" fill="none" stroke="#111" stroke-width="2.5" stroke-linecap="round" stroke-linejoin="round"/><path d="" fill="#111"/></g><text x="416" y="154" text-anchor="middle" font-family="system-ui, sans-serif" font-size="10" fill="#5c574e">pausa</text><g filter="url(#sticker-shadow)"><path d="M30.2 190.8L27.6 194.3L26.1 196.4L23.1 200.5L21.4 202.7L23.4 202L27.5 200.9L29.9 198.9L33.1 197.5L36.7 196L30.2 190.8Z" fill="#fff"/><path d="M30.2 190.8L27.6 194.3L26.1 196.4L23.1 200.5L21.4 202.7L23.4 202L27.5 200.9L29.9 198.9L33.1 197.5L36.7 196L30.2 190.8M43.8 178.9L40.7 182.1L38.1 185.1L34.4 188.4L32.1 190.9" fill="none" stroke="#fff" stroke-width="8.5" stroke-linecap="round" stroke-linejoin="round"/><path d="" fill="#fff"/><path d="M30.2 190.8L27.6 194.3L26.1 196.4L23.1 200.5L21.4 202.7L23.4 202L27.5 200.9L29.9 198.9L33.1 197.5L36.7 196L30.2 190.8M43.8 178.9L40.7 182.1L38.1 185.1L34.4 188.4L32.1 190.9" fill="none" stroke="#111" stroke-width="2.5" stroke-linecap="round" stroke-linejoin="round"/><path d="" fill="#111"/></g><text x="32" y="234" text-anchor="middle" font-family="system-ui, sans-serif" font-size="10" fill="#5c574e">pincel</text><g filter="url(#sticker-shadow)"><path d="M108.4 192.2L108.2 189.4L107.2 186.6L106.5 185.3L104.6 183.5L102.9 181.6L100.5 180.5L98.1 179.6L95.7 179.4L93.4 179.4L90.6 180.1L89.4 181.2L87.4 182.8L86.1 184.6L84.9 186.8L83.9 189.3L83.9 191.7L83.7 194.4L84.6 197.3L85.4 198.7L86.7 200.9L89.2 201.8L90.8 203.4L93.5 204L95.6 205.1L97.9 204.5L100.8 203.4L102.7 202.2L105.3 200.3L106.4 198.6L107.6 196.8L108.4 192.2Z" fill="#fff"/><path d="M95.6 192.2L95.5 189.1L96.4 184.5M95.6 192.3L98.7 193.3L101.1 194.4M108.4 192.2L108.2 189.4L107.2 186.6L106.5 185.3L104.6 183.5L102.9 181.6L100.5 180.5L98.1 179.6L95.7 179.4L93.4 179.4L90.6 180.1L89.4 181.2L87.4 182.8L86.1 184.6L84.9 186.8L83.9 189.3L83.9 191.7L83.7 194.4L84.6 197.3L85.4 198.7L86.7 200.9L89.2 201.8L90.8 203.4L93.5 204L95.6 205.1L97.9 204.5L100.8 203.4L102.7 202.2L105.3 200.3L106.4 198.6L107.6 196.8L108.4 192.2" fill="none" stroke="#fff" stroke-width="8.5" stroke-linecap="round" stroke-linejoin="round"/><path d="M92.9 192a3.1 3.1 0 1 0 6.1 0a3.1 3.1 0 1 0 -6.1 0Z" fill="#fff"/><path d="M95.6 192.2L95.5 189.1L96.4 184.5M95.6 192.3L98.7 193.3L101.1 194.4M108.4 192.2L108.2 189.4L107.2 186.6L106.5 185.3L104.6 183.5L102.9 181.6L100.5 180.5L98.1 179.6L95.7 179.4L93.4 179.4L90.6 180.1L89.4 181.2L87.4 182.8L86.1 184.6L84.9 186.8L83.9 189.3L83.9 191.7L83.7 194.4L84.6 197.3L85.4 198.7L86.7 200.9L89.2 201.8L90.8 203.4L93.5 204L95.6 205.1L97.9 204.5L100.8 203.4L102.7 202.2L105.3 200.3L106.4 198.6L107.6 196.8L108.4 192.2" fill="none" stroke="#111" stroke-width="2.5" stroke-linecap="round" stroke-linejoin="round"/><path d="M94.7 192a1.3 1.3 0 1 0 2.5 0a1.3 1.3 0 1 0 -2.5 0Z" fill="#111"/></g><text x="96" y="234" text-anchor="middle" font-family="system-ui, sans-serif" font-size="10" fill="#5c574e">relogio</text></svg>
